999
dxflib 3.17.0.0
  0
SECTION
  2
HEADER
  9
$ACADVER
  1
AC1015
  9
$HANDSEED
  5
FFFF
  9
$DIMADEC
 70
0
  9
$DIMASZ
 40
2.5
  9
$DIMAUNIT
 70
0
  9
$DIMAZIN
 70
2
  9
$DIMDEC
 70
4
  9
$DIMDSEP
 70
46
  9
$DIMEXE
 40
1.25
  9
$DIMEXO
 40
0.625
  9
$DIMGAP
 40
0.625
  9
$DIMLUNIT
 70
2
  9
$DIMSCALE
 40
1.0
  9
$DIMTSZ
 40
0.0
  9
$DIMTXT
 40
2.5
  9
$DIMZIN
 70
8
  9
$DWGCODEPAGE
  3
ANSI_1252
  9
$INSUNITS
 70
4
  9
$LTSCALE
 40
1.0
  9
$MAXACTVP
 70
64
  9
$MEASUREMENT
 70
1
  9
$PDMODE
 70
0
  9
$PDSIZE
 40
0.0
  0
ENDSEC
  0
SECTION
  2
TABLES
  0
TABLE
  2
VPORT
  5
8
100
AcDbSymbolTable
 70
1
  0
VPORT
  5
30
100
AcDbSymbolTableRecord
100
AcDbViewportTableRecord
  2
*Active
 70
0
 10
0.0
 20
0.0
 11
1.0
 21
1.0
 12
286.30555555555549
 22
148.5
 13
0.0
 23
0.0
 14
10.0
 24
10.0
 15
10.0
 25
10.0
 16
0.0
 26
0.0
 36
1.0
 17
0.0
 27
0.0
 37
0.0
 40
297.0
 41
1.92798353909465
 42
50.0
 43
0.0
 44
0.0
 50
0.0
 51
0.0
 71
0
 72
100
 73
1
 74
3
 75
1
 76
1
 77
0
 78
0
281
0
 65
1
110
0.0
120
0.0
130
0.0
111
1.0
121
0.0
131
0.0
112
0.0
122
1.0
132
0.0
 79
0
146
0.0
  0
ENDTAB
  0
TABLE
  2
LTYPE
  5
5
100
AcDbSymbolTable
 70
41
  0
LTYPE
  5
16
100
AcDbSymbolTableRecord
100
AcDbLinetypeTableRecord
  2
Continuous
 70
0
  3
Solid line
 72
65
 73
0
 40
0.0
  0
LTYPE
  5
31
100
AcDbSymbolTableRecord
100
AcDbLinetypeTableRecord
  2
DIVIDEX2
 70
0
  3
Divide (2x) ________  .  .  ________  .  .  _
 72
65
 73
6
 40
63.5
 49
25.399999999999999
 74
0
 49
-12.649999999999999
 74
0
 49
0.1
 74
0
 49
-12.599999999999998
 74
0
 49
0.1
 74
0
 49
-12.649999999999999
 74
0
  0
LTYPE
  5
32
100
AcDbSymbolTableRecord
100
AcDbLinetypeTableRecord
  2
CENTER
 70
0
  3
Center ____ _ ____ _ ____ _ ____ _ ____ _ ____
 72
65
 73
4
 40
50.800000000000004
 49
31.75
 74
0
 49
-6.3499999999999996
 74
0
 49
6.3499999999999996
 74
0
 49
-6.3499999999999996
 74
0
  0
LTYPE
  5
33
100
AcDbSymbolTableRecord
100
AcDbLinetypeTableRecord
  2
DASHED
 70
0
  3
Dashed __ __ __ __ __ __ __ __ __ __ __ __ __ _
 72
65
 73
2
 40
19.049999999999997
 49
12.699999999999999
 74
0
 49
-6.3499999999999996
 74
0
  0
LTYPE
  5
34
100
AcDbSymbolTableRecord
100
AcDbLinetypeTableRecord
  2
ACAD_ISO04W100
 70
0
  3
ISO long-dash dot ____ . ____ . ____ . ____ . _
 72
65
 73
4
 40
30.0
 49
24.0
 74
0
 49
-2.9500000000000002
 74
0
 49
0.1
 74
0
 49
-2.9500000000000002
 74
0
  0
LTYPE
  5
35
100
AcDbSymbolTableRecord
100
AcDbLinetypeTableRecord
  2
CENTER2
 70
0
  3
Center (.5x) ___ _ ___ _ ___ _ ___ _ ___ _ ___
 72
65
 73
4
 40
28.575000000000003
 49
19.050000000000001
 74
0
 49
-3.1749999999999998
 74
0
 49
3.1749999999999998
 74
0
 49
-3.1749999999999998
 74
0
  0
LTYPE
  5
36
100
AcDbSymbolTableRecord
100
AcDbLinetypeTableRecord
  2
DASHED2
 70
0
  3
Dashed (.5x) _ _ _ _ _ _ _ _ _ _ _ _ _ _ _ _ _ 
 72
65
 73
2
 40
9.5249999999999986
 49
6.3499999999999996
 74
0
 49
-3.1749999999999998
 74
0
  0
LTYPE
  5
37
100
AcDbSymbolTableRecord
100
AcDbLinetypeTableRecord
  2
PHANTOM2
 70
0
  3
Phantom (.5x) ___ _ _ ___ _ _ ___ _ _ ___ _ _
 72
65
 73
6
 40
31.750000000000004
 49
15.875
 74
0
 49
-3.1749999999999998
 74
0
 49
3.1749999999999998
 74
0
 49
-3.1749999999999998
 74
0
 49
3.1749999999999998
 74
0
 49
-3.1749999999999998
 74
0
  0
LTYPE
  5
38
100
AcDbSymbolTableRecord
100
AcDbLinetypeTableRecord
  2
ACAD_ISO07W100
 70
0
  3
ISO dot . . . . . . . . . . . . . . . . . . . . 
 72
65
 73
2
 40
3.0
 49
0.1
 74
0
 49
-2.8999999999999999
 74
0
  0
LTYPE
  5
39
100
AcDbSymbolTableRecord
100
AcDbLinetypeTableRecord
  2
DASHEDX2
 70
0
  3
Dashed (2x) ____  ____  ____  ____  ____  ___
 72
65
 73
2
 40
38.099999999999994
 49
25.399999999999999
 74
0
 49
-12.699999999999999
 74
0
  0
LTYPE
  5
3A
100
AcDbSymbolTableRecord
100
AcDbLinetypeTableRecord
  2
ACAD_ISO02W100
 70
0
  3
ISO dash __ __ __ __ __ __ __ __ __ __ __ __ __
 72
65
 73
2
 40
15.0
 49
12.0
 74
0
 49
-3.0
 74
0
  0
LTYPE
  5
3B
100
AcDbSymbolTableRecord
100
AcDbLinetypeTableRecord
  2
ACAD_ISO09W100
 70
0
  3
ISO long-dash double-short-dash ____ __ __ ____
 72
65
 73
6
 40
45.0
 49
24.0
 74
0
 49
-3.0
 74
0
 49
6.0
 74
0
 49
-3.0
 74
0
 49
6.0
 74
0
 49
-3.0
 74
0
  0
LTYPE
  5
3C
100
AcDbSymbolTableRecord
100
AcDbLinetypeTableRecord
  2
DASHDOTX2
 70
0
  3
Dash dot (2x) ____  .  ____  .  ____  .  ___
 72
65
 73
4
 40
50.799999999999997
 49
25.399999999999999
 74
0
 49
-12.649999999999999
 74
0
 49
0.1
 74
0
 49
-12.649999999999999
 74
0
  0
LTYPE
  5
3D
100
AcDbSymbolTableRecord
100
AcDbLinetypeTableRecord
  2
BORDERX2
 70
0
  3
Border (2x) ____  ____  .  ____  ____  .  ___
 72
65
 73
6
 40
88.899999999999977
 49
25.399999999999999
 74
0
 49
-12.699999999999999
 74
0
 49
25.399999999999999
 74
0
 49
-12.649999999999999
 74
0
 49
0.1
 74
0
 49
-12.649999999999999
 74
0
  0
LTYPE
  5
3E
100
AcDbSymbolTableRecord
100
AcDbLinetypeTableRecord
  2
ACAD_ISO08W100
 70
0
  3
ISO long-dash short-dash ____ __ ____ __ ____ _
 72
65
 73
4
 40
36.0
 49
24.0
 74
0
 49
-3.0
 74
0
 49
6.0
 74
0
 49
-3.0
 74
0
  0
LTYPE
  5
3F
100
AcDbSymbolTableRecord
100
AcDbLinetypeTableRecord
  2
DOTX2
 70
0
  3
Dot (2x) .  .  .  .  .  .  .  .  .  .  .  .  .  .
 72
65
 73
2
 40
12.699999999999999
 49
0.1
 74
0
 49
-12.6
 74
0
  0
LTYPE
  5
40
100
AcDbSymbolTableRecord
100
AcDbLinetypeTableRecord
  2
HIDDEN2
 70
0
  3
Hidden (.5x) _ _ _ _ _ _ _ _ _ _ _ _ _ _ _ _ _ 
 72
65
 73
2
 40
4.7624999999999993
 49
3.1749999999999998
 74
0
 49
-1.5874999999999999
 74
0
  0
LTYPE
  5
41
100
AcDbSymbolTableRecord
100
AcDbLinetypeTableRecord
  2
BORDER2
 70
0
  3
Border (.5x) __.__.__.__.__.__.__.__.__.__.__.
 72
65
 73
6
 40
22.225000000000001
 49
6.3499999999999996
 74
0
 49
-3.1749999999999998
 74
0
 49
6.3499999999999996
 74
0
 49
-3.125
 74
0
 49
0.1
 74
0
 49
-3.125
 74
0
  0
LTYPE
  5
42
100
AcDbSymbolTableRecord
100
AcDbLinetypeTableRecord
  2
DIVIDE2
 70
0
  3
Divide (.5x) __..__..__..__..__..__..__..__.._
 72
65
 73
6
 40
15.874999999999998
 49
6.3499999999999996
 74
0
 49
-3.125
 74
0
 49
0.1
 74
0
 49
-3.0750000000000002
 74
0
 49
0.1
 74
0
 49
-3.125
 74
0
  0
LTYPE
  5
43
100
AcDbSymbolTableRecord
100
AcDbLinetypeTableRecord
  2
PHANTOM
 70
0
  3
Phantom ______  __  __  ______  __  __  ______ 
 72
65
 73
6
 40
63.500000000000007
 49
31.75
 74
0
 49
-6.3499999999999996
 74
0
 49
6.3499999999999996
 74
0
 49
-6.3499999999999996
 74
0
 49
6.3499999999999996
 74
0
 49
-6.3499999999999996
 74
0
  0
LTYPE
  5
44
100
AcDbSymbolTableRecord
100
AcDbLinetypeTableRecord
  2
DASHDOT2
 70
0
  3
Dash dot (.5x) _._._._._._._._._._._._._._._.
 72
65
 73
4
 40
12.699999999999999
 49
6.3499999999999996
 74
0
 49
-3.125
 74
0
 49
0.1
 74
0
 49
-3.125
 74
0
  0
LTYPE
  5
45
100
AcDbSymbolTableRecord
100
AcDbLinetypeTableRecord
  2
ACAD_ISO05W100
 70
0
  3
ISO long-dash double-dot ____ .. ____ .. ____ . 
 72
65
 73
6
 40
33.000000000000007
 49
24.0
 74
0
 49
-2.9500000000000002
 74
0
 49
0.1
 74
0
 49
-2.9000000000000004
 74
0
 49
0.1
 74
0
 49
-2.9500000000000002
 74
0
  0
LTYPE
  5
46
100
AcDbSymbolTableRecord
100
AcDbLinetypeTableRecord
  2
ACAD_ISO06W100
 70
0
  3
ISO long-dash triple-dot ____ ... ____ ... ____
 72
65
 73
8
 40
36.000000000000007
 49
24.0
 74
0
 49
-2.9500000000000002
 74
0
 49
0.1
 74
0
 49
-2.9000000000000004
 74
0
 49
0.1
 74
0
 49
-2.9000000000000004
 74
0
 49
0.1
 74
0
 49
-2.9500000000000002
 74
0
  0
LTYPE
  5
47
100
AcDbSymbolTableRecord
100
AcDbLinetypeTableRecord
  2
DASHDOT
 70
0
  3
Dash dot __ . __ . __ . __ . __ . __ . __ . __
 72
65
 73
4
 40
25.400000000000002
 49
12.699999999999999
 74
0
 49
-6.2999999999999998
 74
0
 49
0.1
 74
0
 49
-6.2999999999999998
 74
0
  0
LTYPE
  5
48
100
AcDbSymbolTableRecord
100
AcDbLinetypeTableRecord
  2
DOT
 70
0
  3
Dot . . . . . . . . . . . . . . . . . . . . . . . .
 72
65
 73
2
 40
6.3499999999999996
 49
0.1
 74
0
 49
-6.25
 74
0
  0
LTYPE
  5
49
100
AcDbSymbolTableRecord
100
AcDbLinetypeTableRecord
  2
PHANTOMX2
 70
0
  3
Phantom (2x) ____________    ____    ____   _
 72
65
 73
6
 40
127.00000000000001
 49
63.5
 74
0
 49
-12.699999999999999
 74
0
 49
12.699999999999999
 74
0
 49
-12.699999999999999
 74
0
 49
12.699999999999999
 74
0
 49
-12.699999999999999
 74
0
  0
LTYPE
  5
4A
100
AcDbSymbolTableRecord
100
AcDbLinetypeTableRecord
  2
DOT2
 70
0
  3
Dot (.5x) ........................................
 72
65
 73
2
 40
3.1749999999999998
 49
0.1
 74
0
 49
-3.0749999999999997
 74
0
  0
LTYPE
  5
4B
100
AcDbSymbolTableRecord
100
AcDbLinetypeTableRecord
  2
HIDDENX2
 70
0
  3
Hidden (2x) ____ ____ ____ ____ ____ ____ ____ 
 72
65
 73
2
 40
19.049999999999997
 49
12.699999999999999
 74
0
 49
-6.3499999999999996
 74
0
  0
LTYPE
  5
4C
100
AcDbSymbolTableRecord
100
AcDbLinetypeTableRecord
  2
ACAD_ISO15W100
 70
0
  3
ISO double-dash triple-dot __ __ . . . __ __ . .
 72
65
 73
10
 40
39.000000000000007
 49
12.0
 74
0
 49
-3.0
 74
0
 49
12.0
 74
0
 49
-2.9500000000000002
 74
0
 49
0.1
 74
0
 49
-2.9000000000000004
 74
0
 49
0.1
 74
0
 49
-2.9000000000000004
 74
0
 49
0.1
 74
0
 49
-2.9500000000000002
 74
0
  0
LTYPE
  5
4D
100
AcDbSymbolTableRecord
100
AcDbLinetypeTableRecord
  2
ACAD_ISO03W100
 70
0
  3
ISO dash space __    __    __    __    __    __
 72
65
 73
2
 40
30.0
 49
12.0
 74
0
 49
-18.0
 74
0
  0
LTYPE
  5
4E
100
AcDbSymbolTableRecord
100
AcDbLinetypeTableRecord
  2
DIVIDE
 70
0
  3
Divide ____ . . ____ . . ____ . . ____ . . ____
 72
65
 73
6
 40
31.750000000000004
 49
12.699999999999999
 74
0
 49
-6.2999999999999998
 74
0
 49
0.1
 74
0
 49
-6.25
 74
0
 49
0.1
 74
0
 49
-6.2999999999999998
 74
0
  0
LTYPE
  5
4F
100
AcDbSymbolTableRecord
100
AcDbLinetypeTableRecord
  2
ACAD_ISO11W100
 70
0
  3
ISO double-dash dot __ __ . __ __ . __ __ . __ _
 72
65
 73
6
 40
33.0
 49
12.0
 74
0
 49
-3.0
 74
0
 49
12.0
 74
0
 49
-2.9500000000000002
 74
0
 49
0.1
 74
0
 49
-2.9500000000000002
 74
0
  0
LTYPE
  5
15
100
AcDbSymbolTableRecord
100
AcDbLinetypeTableRecord
  2
BYLAYER
 70
0
  3

 72
65
 73
0
 40
0.0
  0
LTYPE
  5
50
100
AcDbSymbolTableRecord
100
AcDbLinetypeTableRecord
  2
HIDDEN
 70
0
  3
Hidden __ __ __ __ __ __ __ __ __ __ __ __ __ __
 72
65
 73
2
 40
9.5249999999999986
 49
6.3499999999999996
 74
0
 49
-3.1749999999999998
 74
0
  0
LTYPE
  5
51
100
AcDbSymbolTableRecord
100
AcDbLinetypeTableRecord
  2
ACAD_ISO10W100
 70
0
  3
ISO dash dot __ . __ . __ . __ . __ . __ . __ . 
 72
65
 73
4
 40
18.0
 49
12.0
 74
0
 49
-2.9500000000000002
 74
0
 49
0.1
 74
0
 49
-2.9500000000000002
 74
0
  0
LTYPE
  5
52
100
AcDbSymbolTableRecord
100
AcDbLinetypeTableRecord
  2
BORDER
 70
0
  3
Border __ __ . __ __ . __ __ . __ __ . __ __ .
 72
65
 73
6
 40
44.449999999999996
 49
12.699999999999999
 74
0
 49
-6.3499999999999996
 74
0
 49
12.699999999999999
 74
0
 49
-6.2999999999999998
 74
0
 49
0.1
 74
0
 49
-6.2999999999999998
 74
0
  0
LTYPE
  5
53
100
AcDbSymbolTableRecord
100
AcDbLinetypeTableRecord
  2
ACAD_ISO14W100
 70
0
  3
ISO dash triple-dot __ . . . __ . . . __ . . . _
 72
65
 73
8
 40
24.000000000000004
 49
12.0
 74
0
 49
-2.9500000000000002
 74
0
 49
0.1
 74
0
 49
-2.9000000000000004
 74
0
 49
0.1
 74
0
 49
-2.9000000000000004
 74
0
 49
0.1
 74
0
 49
-2.9500000000000002
 74
0
  0
LTYPE
  5
14
100
AcDbSymbolTableRecord
100
AcDbLinetypeTableRecord
  2
BYBLOCK
 70
0
  3

 72
65
 73
0
 40
0.0
  0
LTYPE
  5
54
100
AcDbSymbolTableRecord
100
AcDbLinetypeTableRecord
  2
ACAD_ISO12W100
 70
0
  3
ISO dash double-dot __ . . __ . . __ . . __ . . 
 72
65
 73
6
 40
21.0
 49
12.0
 74
0
 49
-2.9500000000000002
 74
0
 49
0.1
 74
0
 49
-2.9000000000000004
 74
0
 49
0.1
 74
0
 49
-2.9500000000000002
 74
0
  0
LTYPE
  5
55
100
AcDbSymbolTableRecord
100
AcDbLinetypeTableRecord
  2
CENTERX2
 70
0
  3
Center (2x) ________  __  ________  __  _____
 72
65
 73
4
 40
101.60000000000001
 49
63.5
 74
0
 49
-12.699999999999999
 74
0
 49
12.699999999999999
 74
0
 49
-12.699999999999999
 74
0
  0
LTYPE
  5
56
100
AcDbSymbolTableRecord
100
AcDbLinetypeTableRecord
  2
ACAD_ISO13W100
 70
0
  3
ISO double-dash double-dot __ __ . . __ __ . . _
 72
65
 73
8
 40
36.000000000000007
 49
12.0
 74
0
 49
-3.0
 74
0
 49
12.0
 74
0
 49
-2.9500000000000002
 74
0
 49
0.1
 74
0
 49
-2.9000000000000004
 74
0
 49
0.1
 74
0
 49
-2.9500000000000002
 74
0
  0
ENDTAB
  0
TABLE
  2
LAYER
  5
2
100
AcDbSymbolTable
 70
8
  0
LAYER
  5
57
100
AcDbSymbolTableRecord
100
AcDbLayerTableRecord
  2
text_engrave
 70
0
 62
6
420
16711935
  6
Continuous
370
5
390
F
  0
LAYER
  5
58
100
AcDbSymbolTableRecord
100
AcDbLayerTableRecord
  2
dimensions
 70
0
 62
7
420
0
  6
Continuous
370
13
390
F
  0
LAYER
  5
59
100
AcDbSymbolTableRecord
100
AcDbLayerTableRecord
  2
text
 70
1
 62
7
420
0
  6
Continuous
370
25
390
F
  0
LAYER
  5
5A
100
AcDbSymbolTableRecord
100
AcDbLayerTableRecord
  2
frame_engrave
 70
0
 62
6
420
16711935
  6
Continuous
370
5
390
F
  0
LAYER
  5
10
100
AcDbSymbolTableRecord
100
AcDbLayerTableRecord
  2
0
 70
0
 62
7
420
16777215
  6
Continuous
370
25
390
F
  0
LAYER
  5
5B
100
AcDbSymbolTableRecord
100
AcDbLayerTableRecord
  2
construction
 70
1
 62
7
420
0
  6
Continuous
370
25
390
F
  0
LAYER
  5
5C
100
AcDbSymbolTableRecord
100
AcDbLayerTableRecord
  2
frame
 70
1
 62
7
420
0
  6
Continuous
370
120
390
F
  0
LAYER
  5
5D
100
AcDbSymbolTableRecord
100
AcDbLayerTableRecord
  2
crop_marks
 70
0
 62
7
420
0
  6
Continuous
370
13
390
F
  0
ENDTAB
  0
TABLE
  2
STYLE
  5
3
100
AcDbSymbolTable
 70
3
  0
STYLE
  5
5E
100
AcDbSymbolTableRecord
100
AcDbTextStyleTableRecord
  2
Standard
 70
0
 40
0.0
 41
1.0
 50
0.0
 71
0
 42
2.5
  3

  4

1001
ACAD
1000
txt
1071
0
  0
STYLE
  5
5F
100
AcDbSymbolTableRecord
100
AcDbTextStyleTableRecord
  2
textstyle0
 70
0
 40
0.0
 41
1.0
 50
0.0
 71
0
 42
1.5
  3

  4

1001
ACAD
1000
Arial
1071
0
  0
STYLE
  5
60
100
AcDbSymbolTableRecord
100
AcDbTextStyleTableRecord
  2
textstyle1
 70
0
 40
0.0
 41
1.0
 50
0.0
 71
0
 42
1.5
  3

  4

1001
ACAD
1000
Arial
1071
0
  0
ENDTAB
  0
TABLE
  2
VIEW
  5
6
100
AcDbSymbolTable
 70
0
  0
ENDTAB
  0
TABLE
  2
UCS
  5
7
100
AcDbSymbolTable
 70
0
  0
ENDTAB
  0
TABLE
  2
APPID
  5
9
100
AcDbSymbolTable
 70
1
  0
APPID
  5
12
100
AcDbSymbolTableRecord
100
AcDbRegAppTableRecord
  2
ACAD
 70
0
  0
APPID
  5
61
100
AcDbSymbolTableRecord
100
AcDbRegAppTableRecord
  2
QCAD
 70
0
  0
ENDTAB
  0
TABLE
  2
DIMSTYLE
  5
A
100
AcDbSymbolTable
 70
1
100
AcDbDimStyleTable
 71
0
  0
DIMSTYLE
105
27
100
AcDbSymbolTableRecord
100
AcDbDimStyleTableRecord
  2
Standard
 41
2.5
 42
0.625
 43
3.75
 44
1.25
 70
0
 73
0
 74
0
 77
1
 78
8
140
2.5
141
2.5
143
0.03937007874016
147
0.625
171
3
172
1
271
2
272
2
274
3
278
44
283
0
284
8
340
5E
  0
ENDTAB
  0
TABLE
  2
BLOCK_RECORD
  5
1
100
AcDbSymbolTable
 70
1
  0
BLOCK_RECORD
  5
1F
100
AcDbSymbolTableRecord
100
AcDbBlockTableRecord
  2
*Model_Space
340
22
  0
BLOCK_RECORD
  5
1B
100
AcDbSymbolTableRecord
100
AcDbBlockTableRecord
  2
*Paper_Space
340
1E
  0
BLOCK_RECORD
  5
23
100
AcDbSymbolTableRecord
100
AcDbBlockTableRecord
  2
*Paper_Space0
340
26
  0
ENDTAB
  0
ENDSEC
  0
SECTION
  2
BLOCKS
  0
BLOCK
  5
20
100
AcDbEntity
  8
0
100
AcDbBlockBegin
  2
*Model_Space
 70
0
 10
0.0
 20
0.0
 30
0.0
  3
*Model_Space
  1

  0
ENDBLK
  5
21
100
AcDbEntity
  8
0
100
AcDbBlockEnd
  0
BLOCK
  5
1C
100
AcDbEntity
 67
1
  8
0
100
AcDbBlockBegin
  2
*Paper_Space
 70
0
 10
0.0
 20
0.0
 30
0.0
  3
*Paper_Space
  1

  0
ENDBLK
  5
1D
100
AcDbEntity
 67
1
  8
0
100
AcDbBlockEnd
  0
BLOCK
  5
24
100
AcDbEntity
  8
0
100
AcDbBlockBegin
  2
*Paper_Space0
 70
0
 10
0.0
 20
0.0
 30
0.0
  3
*Paper_Space0
  1

  0
ENDBLK
  5
25
100
AcDbEntity
  8
0
100
AcDbBlockEnd
  0
ENDSEC
  0
SECTION
  2
ENTITIES
  0
LWPOLYLINE
  5
62
100
AcDbEntity
  8
frame
 62
256
370
-1
 48
1.0
  6
BYLAYER
100
AcDbPolyline
 90
4
 70
129
 10
-10.1
 20
-10.1
 10
10.1
 20
-10.1
 10
10.1
 20
10.1
 10
-10.1
 20
10.1
  0
LINE
  5
63
100
AcDbEntity
  8
frame
 62
256
370
-1
 48
1.0
  6
BYLAYER
100
AcDbLine
 10
-10.1
 20
0.0
 30
0.0
 11
10.1
 21
0.0
 31
0.0
  0
LINE
  5
64
100
AcDbEntity
  8
construction
 62
256
370
-1
 48
1.0
  6
BYLAYER
100
AcDbLine
 10
-20.0
 20
5.0499999999999998
 30
0.0
 11
20.0
 21
5.0499999999999998
 31
0.0
  0
LINE
  5
65
100
AcDbEntity
  8
construction
 62
256
370
-1
 48
1.0
  6
BYLAYER
100
AcDbLine
 10
-20.0
 20
-5.0499999999999998
 30
0.0
 11
20.0
 21
-5.0499999999999998
 31
0.0
  0
LINE
  5
66
100
AcDbEntity
  8
construction
 62
256
370
-1
 48
1.0
  6
BYLAYER
100
AcDbLine
 10
0.0
 20
15.0
 30
0.0
 11
0.0
 21
-15.0
 31
0.0
  0
MTEXT
  5
67
100
AcDbEntity
  8
text
 62
256
370
-1
 48
1.0
  6
BYLAYER
100
AcDbMText
 10
-0.0
 20
5.0499999999999998
 30
0.0
 40
1.5
 41
0.0
 71
5
 72
1
  1
\fFutura Condensed BQ|b0|i0|c0|p0;\H4.1;WARNING
  7
textstyle0
 50
0.0
 73
2
 44
0.8
  0
LWPOLYLINE
  5
68
100
AcDbEntity
  8
text_engrave
 62
256
370
-1
 48
1.0
  6
BYLAYER
100
AcDbPolyline
 90
24
 70
129
 10
-7.3957191297620284
 20
7.1182329637515949
 42
-0.0002519154234474
 10
-7.5112850338681483
 20
6.4722598063459458
 42
0.0068950197351926
 10
-7.6180736517100094
 20
5.8258650946338486
 42
0.0068026185799484
 10
-7.7212052680649776
 20
5.1150460957370072
 42
0.0022787518040533
 10
-7.8111709997175183
 20
4.4042270968401844
 10
-7.8975785484340433
 20
5.0360662963588148
 42
0.0067993536672068
 10
-7.9927733054946124
 20
5.6679053171012113
 42
0.0062797575135905
 10
-8.1172587570353585
 20
6.392552119623268
 42
0.0001737915848474
 10
-8.2505314169202393
 20
7.1124098649930829
 10
-8.7836220564593503
 20
7.118232963752213
 10
-8.0689291111430688
 20
3.0182331425284255
 10
-7.6356279560743276
 20
3.0182331425284255
 42
0.0069761561448633
 10
-7.3898676949738515
 20
4.3574241997935026
 42
0.0087043344271954
 10
-7.2728391779879296
 20
5.134059795009275
 42
0.0030984769179868
 10
-7.173366127411704
 20
5.9194708887272389
 10
-6.7105731546249325
 20
3.0124098649936184
 10
-6.2712127374223012
 20
3.0124098649936184
 10
-5.5682360698980897
 20
7.1124098649936176
 10
-6.1013267094372834
 20
7.1124098649936176
 42
-0.0008445389075807
 10
-6.2001828033079107
 20
6.5073654205732936
 42
0.0044403467547449
 10
-6.2946452930064432
 20
5.9019198023347457
 42
0.005955733699021
 10
-6.3986272584110644
 20
5.1530735389755442
 42
-0.000183234945082
 10
-6.4938220154716646
 20
4.4042270968411401
 10
-6.9624731271544409
 20
7.118232963752213
  0
LWPOLYLINE
  5
69
100
AcDbEntity
  8
text_engrave
 62
256
370
-1
 48
1.0
  6
BYLAYER
100
AcDbPolyline
 90
8
 70
129
 10
-4.543224183296303
 20
7.1124098649936176
 10
-5.4805264066619177
 20
3.0124098649936184
 10
-4.9005706559544437
 20
3.0124098649936184
 10
-4.7131102112813199
 20
3.8032586159583559
 10
-3.9456940159007226
 20
3.8032586159583559
 10
-3.7992405434998457
 20
3.0124098649936184
 10
-3.2310010705844419
 20
3.0124098649936184
 10
-4.0569986549253905
 20
7.1124098649936176
  0
LWPOLYLINE
  5
6A
100
AcDbEntity
  8
text_engrave
 62
256
370
-1
 48
1.0
  6
BYLAYER
100
AcDbPolyline
 90
3
 70
129
 10
-4.3206149052469689
 20
6.2341978276860761
 10
-4.0159916826531452
 20
4.2536030435910543
 10
-4.6369544056328644
 20
4.2536030435910543
  0
LWPOLYLINE
  5
6B
100
AcDbEntity
  8
text_engrave
 62
256
370
-1
 48
1.0
  6
BYLAYER
100
AcDbPolyline
 90
17
 70
129
 10
-1.5235650040787745
 20
4.9862658585751163
 42
0.0138169084727128
 10
-1.3575559617088122
 20
5.0946646243651976
 42
0.0580111953117962
 10
-1.2134863360051522
 20
5.2206414717557195
 42
0.101476285865187
 10
-1.0544370068519855
 20
5.5515885529070381
 42
0.046849667489533
 10
-0.9981008683309436
 20
5.883837705900234
 42
0.0214012244913647
 10
-0.9911686419566563
 20
6.0702530695354318
 42
0.0591816921110215
 10
-1.0321210427903631
 20
6.4620617408357202
 42
0.1070576212503688
 10
-1.1959347132840052
 20
6.8140910067195506
 42
0.156590504394407
 10
-1.5222993131959226
 20
7.0407336548748845
 42
0.0619101791140489
 10
-1.9281991254809019
 20
7.1006842908385543
 42
0.0107852418166941
 10
-2.3316539049103007
 20
7.1167716470000109
 42
-0.0000842132968447
 10
-2.7303036267170597
 20
7.1240911026482081
 10
-2.7303036267170744
 20
3.0182331425284255
 10
-2.1510801433716051
 20
3.0182331425284255
 10
-2.1510801433716051
 20
5.0682973231883279
 10
-1.3831520223095859
 20
3.0124098649936184
 10
-0.7802756416993933
 20
3.0124098649936184
  0
LWPOLYLINE
  5
6C
100
AcDbEntity
  8
text_engrave
 62
256
370
-1
 48
1.0
  6
BYLAYER
100
AcDbPolyline
 90
9
 70
129
 10
-2.162783817440769
 20
6.6561722583274463
 42
-0.0407696171925231
 10
-1.9428589982881685
 20
6.6561668503470504
 42
-0.0853560549081079
 10
-1.8108933265910581
 20
6.6210357605098231
 42
-0.1623283349868755
 10
-1.6334668755604784
 20
6.4306056194946368
 42
-0.1160331767424977
 10
-1.5528177086140207
 20
6.0292373372287997
 42
-0.0433003977000069
 10
-1.572614492386373
 20
5.8131723411749583
 42
-0.0284424008475804
 10
-1.6056081785338339
 20
5.6718145271283813
 42
-0.2051655319591266
 10
-1.8086923232640773
 20
5.3956907355029564
 42
-0.085791013291271
 10
-2.1569330977575079
 20
5.3085323266984457
  0
LWPOLYLINE
  5
6D
100
AcDbEntity
  8
text_engrave
 62
256
370
-1
 48
1.0
  6
BYLAYER
100
AcDbPolyline
 90
10
 70
129
 10
-0.2792120641510231
 20
7.0891167548543912
 10
-0.2792120641510231
 20
3.0182331425284255
 10
0.3000114191944462
 20
3.0182331425284255
 10
0.2532034270257174
 20
5.6620549549703778
 10
1.2614033794974058
 20
3.0124098649936184
 10
1.7704042820992572
 20
3.0124098649936184
 10
1.7704042820992572
 20
7.0891167548543912
 10
1.2028970765458544
 20
7.0891167548543912
 10
1.2555527492022522
 20
4.4217781832327159
 10
0.2883077451252823
 20
7.0891167548543912
  0
LWPOLYLINE
  5
6E
100
AcDbEntity
  8
text_engrave
 62
256
370
-1
 48
1.0
  6
BYLAYER
100
AcDbPolyline
 90
4
 70
129
 10
2.5359650331114669
 20
7.118232963752213
 10
2.5359650331114669
 20
3.0182331425284255
 10
3.1210466553529703
 20
3.0182331425284255
 10
3.1210466553529703
 20
7.118232963752213
  0
LWPOLYLINE
  5
6F
100
AcDbEntity
  8
text_engrave
 62
256
370
-1
 48
1.0
  6
BYLAYER
100
AcDbPolyline
 90
10
 70
129
 10
3.8859026678513691
 20
7.0891167548543912
 10
3.8859026678513691
 20
3.0182331425284255
 10
4.4651261511968396
 20
3.0182331425284255
 10
4.4183181590281109
 20
5.6620549549703778
 10
5.4265181114997993
 20
3.0124098649936184
 10
5.9355190141016489
 20
3.0124098649936184
 10
5.9355190141016489
 20
7.0891167548543912
 10
5.368011808548248
 20
7.0891167548543912
 10
5.420667481204644
 20
4.4217781832327159
 10
4.453422477127674
 20
7.0891167548543912
  0
LWPOLYLINE
  5
70
100
AcDbEntity
  8
text_engrave
 62
256
370
-1
 48
1.0
  6
BYLAYER
100
AcDbPolyline
 90
52
 70
129
 10
8.7156266546257974
 20
6.3103761591371708
 42
0.0255596186130166
 10
8.6710182802684095
 20
6.4539648321380394
 42
0.0506158222302617
 10
8.5693698360574935
 20
6.6678381212278932
 42
0.1415060096095028
 10
8.2027352688049326
 20
7.0254027008639746
 42
0.1232009691589981
 10
7.7083092309218166
 20
7.141665519336355
 42
0.0433876622985764
 10
7.4940666795672612
 20
7.1208668289811126
 42
0.07481160759982
 10
7.1744382332197461
 20
7.0142722280226977
 42
0.128921585840882
 10
6.8823375691315256
 20
6.7555841674393644
 42
0.0792920697982625
 10
6.7521570225995671
 20
6.445151835325488
 42
0.0247974071291461
 10
6.6483052062768628
 20
5.9411275708151852
 42
0.0015635933392857
 10
6.6212451472807174
 20
5.5242782072148175
 42
0.0143515363364307
 10
6.6073495427772961
 20
5.1031561815495348
 42
0.0162513864043348
 10
6.636603588134129
 20
4.2951015610566374
 42
0.0320816258540375
 10
6.7016938614001091
 20
3.818865555745655
 42
0.0929281794634816
 10
6.8764867600601587
 20
3.3867173731584592
 42
0.1660896260848899
 10
7.3163867238688773
 20
3.0196464131738079
 42
0.0912289115314129
 10
7.6907224786751236
 20
2.9596866149293035
 42
0.0688798564972361
 10
8.0292665208488678
 20
3.0042908774338266
 42
0.0590828665204045
 10
8.235904289721752
 20
3.0883808160394595
 42
0.1376849591538287
 10
8.5635195633147561
 20
3.4029269228604258
 42
0.0715423003887363
 10
8.6805250181694049
 20
3.6913541827443535
 42
0.0210040876594325
 10
8.714164086440114
 20
3.8554796836447749
 42
0.0087408134373122
 10
8.7390277455967293
 20
4.0196051845451954
 42
0.0047180556386223
 10
8.768935620252801
 20
4.3402199392511829
 42
0.0174484981548324
 10
8.7832430357592415
 20
4.6775413309149352
 42
0.0114458502827107
 10
8.7741286669482754
 20
5.185047128060619
 10
7.7434827354152063
 20
5.1850471280606332
 10
7.7434827354152063
 20
4.6878375892596553
 10
8.2300540169790146
 20
4.6878375892596553
 42
-0.0166666371087016
 10
8.2087994025905857
 20
4.1427002934896704
 42
-0.0589393165539457
 10
8.1479780370891604
 20
3.7910018082910368
 42
-0.090515713821941
 10
8.0343968617881849
 20
3.5983074665581292
 42
-0.2211592763462129
 10
7.7317582339174074
 20
3.4627639465417337
 42
-0.0712049590191077
 10
7.5947281003148959
 20
3.4825403498259835
 42
-0.0597495284400797
 10
7.5148549562081861
 20
3.5155054317796148
 42
-0.1433274437822748
 10
7.3668330801044632
 20
3.6657096290962272
 42
-0.0614968920842326
 10
7.3155384307456579
 20
3.8027250583553522
 42
-0.0258429303738747
 10
7.2796321225616296
 20
3.9434041485152482
 42
-0.0043490572573965
 10
7.2393291710099845
 20
4.1544225602848197
 42
-0.0092168007631926
 10
7.1959249438246644
 20
4.6171012503784574
 42
-0.0187376381575273
 10
7.1850663449069163
 20
4.9181156069802681
 42
-0.0075218532706651
 10
7.1924311650188031
 20
5.2202136602817664
 42
-0.0001419939384065
 10
7.2012244964481056
 20
5.4810321969761482
 42
0.0001418128605009
 10
7.2100179172654748
 20
5.7418505548959278
 42
-0.0241629139362398
 10
7.2437258143776084
 20
6.1396720512086684
 42
-0.0875089210673365
 10
7.3214006814945556
 20
6.3924314009865029
 42
-0.1691605956098979
 10
7.5075270980780111
 20
6.5939082134938607
 42
-0.1175251123453737
 10
7.6848602279262259
 20
6.6327397027433062
 42
-0.0327425822011096
 10
7.7625350950431766
 20
6.6290760418425352
 42
-0.0555811603831073
 10
7.8665900011420575
 20
6.6034305943133527
 42
-0.2021154348961975
 10
8.0930193692771653
 20
6.3916988207661278
 42
-0.0606886589416762
 10
8.18315154158255
 20
6.070071522292702
  0
MTEXT
  5
71
100
AcDbEntity
  8
text
 62
256
370
-1
 48
1.0
  6
BYLAYER
100
AcDbMText
 10
-0.0
 20
-5.0499999999999998
 30
0.0
 40
1.5
 41
0.0
 71
5
 72
1
  1
\fFutura Condensed BQ|b0|i0|c0|p0;\H4.1;CAUTION
  7
textstyle1
 50
0.0
 73
2
 44
0.8
  0
LWPOLYLINE
  5
72
100
AcDbEntity
  8
text_engrave
 62
256
370
-1
 48
1.0
  6
BYLAYER
100
AcDbPolyline
 90
37
 70
129
 10
-6.0712892618444005
 20
-3.0496813728268881
 42
0.0348084244181302
 10
-6.2345848835713786
 20
-2.9897188035511064
 42
0.0604835648499285
 10
-6.4989334012549618
 20
-2.956081478348457
 42
0.0397520488532696
 10
-6.7120232035982381
 20
-2.9729002079908611
 42
0.0271356703204814
 10
-6.8504217350170675
 20
-3.0028813361995672
 42
0.0564280302181405
 10
-7.0671716227368861
 20
-3.0818563980081723
 42
0.0476261345841112
 10
-7.1960419184152977
 20
-3.1608314598167766
 42
0.1066253792048687
 10
-7.4918418645644147
 20
-3.5029576856329334
 42
0.0558685840296311
 10
-7.6472181470657121
 20
-3.8726137943288697
 42
0.0253362703037764
 10
-7.705077861154586
 20
-4.1095663325150333
 42
0.0121455364887778
 10
-7.7635877396303661
 20
-4.4611351155722812
 42
0.0040124168460512
 10
-7.7796779562112039
 20
-4.7336009224416857
 42
0.0120705491335318
 10
-7.7869916910206776
 20
-5.006066729311077
 42
0.0064167910214785
 10
-7.7833348236159408
 20
-5.2660810412188175
 42
0.0022115036649462
 10
-7.7752897153255205
 20
-5.5217009444617169
 42
0.021727349893489
 10
-7.6918566899087768
 20
-6.0678761255270608
 42
0.0732173813047186
 10
-7.5095933590899389
 20
-6.5904758194273061
 42
0.1391546271791163
 10
-7.1374705409227879
 20
-6.9800917558004159
 42
0.0840915846688937
 10
-6.8247923773469141
 20
-7.1036749238020906
 42
0.0527386216662409
 10
-6.6043799013835942
 20
-7.1263441049634384
 42
0.0472984722146062
 10
-6.3407636510620158
 20
-7.0978248745296231
 42
0.0099024563259823
 10
-6.0771474007404365
 20
-7.038592695465625
 10
-6.0771474007404356
 20
-6.5002340573043167
 42
-0.0355422155726464
 10
-6.2865758662736893
 20
-6.5756748028011183
 42
-0.0668411364801574
 10
-6.4344938733985764
 20
-6.5939857327862494
 42
-0.0934490816971065
 10
-6.6644258250679531
 20
-6.5500395455159879
 42
-0.1491328226069622
 10
-6.938293818457594
 20
-6.3303091454933131
 42
-0.1102151480955246
 10
-7.1330719310168407
 20
-5.8586209388367338
 42
-0.0506724196144579
 10
-7.1960419184152977
 20
-5.0880994453577006
 42
-0.0250332332870153
 10
-7.1660239623070385
 20
-4.5080109086191911
 42
-0.0222778680861114
 10
-7.1140379853386468
 20
-4.1388637311031351
 42
-0.0876105640802068
 10
-6.9880879990738922
 20
-3.8048733425046986
 42
-0.1335605089835931
 10
-6.7215426793042958
 20
-3.5587752390586789
 42
-0.0648059374979412
 10
-6.5545857207672951
 20
-3.4965080656413932
 42
-0.0550305227002017
 10
-6.4403520122946114
 20
-3.4825817116296114
 42
-0.0681332768715629
 10
-6.2140813974352556
 20
-3.5199459845118763
 42
-0.0290162082511459
 10
-6.0712892618444005
 20
-3.57049419849392
  0
LWPOLYLINE
  5
73
100
AcDbEntity
  8
text_engrave
 62
256
370
-1
 48
1.0
  6
BYLAYER
100
AcDbPolyline
 90
8
 70
129
 10
-4.8596483017849996
 20
-2.9911952715872285
 10
-5.7969505251506144
 20
-7.0911952715872282
 10
-5.2169947744431395
 20
-7.0911952715872282
 10
-5.0295343297700166
 20
-6.3003465206224902
 10
-4.2621181343894197
 20
-6.3003465206224902
 10
-4.1156646619885429
 20
-7.0911952715872282
 10
-3.547425189073139
 20
-7.0911952715872282
 10
-4.3734227734140871
 20
-2.9911952715872285
  0
LWPOLYLINE
  5
74
100
AcDbEntity
  8
text_engrave
 62
256
370
-1
 48
1.0
  6
BYLAYER
100
AcDbPolyline
 90
3
 70
129
 10
-4.6370390237356665
 20
-3.8694073088947705
 10
-4.332415801141841
 20
-5.8500020929897918
 10
-4.9533785241215602
 20
-5.8500020929897918
  0
LWPOLYLINE
  5
75
100
AcDbEntity
  8
text_engrave
 62
256
370
-1
 48
1.0
  6
BYLAYER
100
AcDbPolyline
 90
30
 70
129
 10
-3.0584440229978407
 20
-2.9911952715872285
 10
-3.0584440229978407
 20
-6.1310876395871583
 42
0.0245134353703362
 10
-3.0452793003407903
 20
-6.3464094629300982
 42
0.068385914641657
 10
-2.9706792052841715
 20
-6.6759253064267865
 42
0.0961019146540307
 10
-2.8280613764994573
 20
-6.8828661009780365
 42
0.0799553820823936
 10
-2.6196199344294908
 20
-7.0327701330356636
 42
0.0682452810661753
 10
-2.3318826613335664
 20
-7.1146689456999965
 42
0.0322987267427824
 10
-2.0219102757176395
 20
-7.1439185216515435
 42
0.0871689017276929
 10
-1.567737891845868
 20
-7.0722570158761995
 42
0.0964710901144231
 10
-1.3072343141414429
 20
-6.9216217444197845
 42
0.1103819900705283
 10
-1.1280533086778677
 20
-6.6758615280133604
 42
0.0533298310494501
 10
-1.0673511422154123
 20
-6.4826510593580631
 42
0.0145139300157833
 10
-1.052724164231049
 20
-6.4028167990773408
 42
-0.0093487327107978
 10
-1.0380970968585788
 20
-6.3185881301316416
 42
0.0071131615292357
 10
-1.0146858156435989
 20
-5.7033521455326124
 42
0.0067392001400237
 10
-1.0154180830056028
 20
-5.1327939451550009
 42
-0.0028835515541643
 10
-1.0205439545396331
 20
-4.5666304216071367
 42
-0.003506694206823
 10
-1.0227382984527367
 20
-3.7844853904940612
 42
0.0007011701447175
 10
-1.0205439545396189
 20
-3.0028418266410331
 10
-1.6056255767811383
 20
-2.9970185491220347
 10
-1.6056255767811383
 20
-6.1252282492576429
 42
-0.0743858164131085
 10
-1.6554635575692362
 20
-6.4028168437713937
 42
-0.2091594855113152
 10
-1.8460159368189857
 20
-6.5881200852893347
 42
-0.0227371035237164
 10
-1.9127092516787789
 20
-6.6078955499984744
 42
-0.0586097600763101
 10
-2.027773420347593
 20
-6.6232764272664246
 42
-0.0782767455561065
 10
-2.1816809668839134
 20
-6.5998388659483647
 42
-0.0529818116923895
 10
-2.2740254948057057
 20
-6.5588231336417584
 42
-0.1928305589669366
 10
-2.4250014690270474
 20
-6.381576576173928
 42
-0.0663832754230602
 10
-2.4616461229642663
 20
-6.1252282492576517
 10
-2.4616461229642663
 20
-2.9911952715872285
  0
LWPOLYLINE
  5
76
100
AcDbEntity
  8
text_engrave
 62
256
370
-1
 48
1.0
  6
BYLAYER
100
AcDbPolyline
 90
8
 70
129
 10
-0.5766633004632755
 20
-2.9912251272145358
 10
-0.5766633004632755
 20
-3.482569376071023
 10
0.0501575614124787
 20
-3.482569376071023
 10
0.0501575614124787
 20
-7.0911952715872282
 10
0.6352391836539839
 20
-7.0911952715872282
 10
0.6352391836539839
 20
-3.4767235727335759
 10
1.262060045529739
 20
-3.4767235727335759
 10
1.262060045529739
 20
-2.9912251272145358
  0
LWPOLYLINE
  5
77
100
AcDbEntity
  8
text_engrave
 62
256
370
-1
 48
1.0
  6
BYLAYER
100
AcDbPolyline
 90
4
 70
129
 10
1.5781187516640385
 20
-2.9853721728286331
 10
1.5781187516640385
 20
-7.0853719940524211
 10
2.1632003739055436
 20
-7.0853719940524211
 10
2.1632003739055436
 20
-2.9853721728286331
  0
LWPOLYLINE
  5
78
100
AcDbEntity
  8
text_engrave
 62
256
370
-1
 48
1.0
  6
BYLAYER
100
AcDbPolyline
 90
19
 70
129
 10
2.8460424418594528
 20
-4.8771514714154121
 42
0.0119988541121033
 10
2.8438638302529515
 20
-5.4420486783641122
 42
0.0297486835237168
 10
2.8911005277766835
 20
-6.0525196065179232
 42
0.0652649387644819
 10
3.0332626113044183
 20
-6.5939790286783202
 42
0.1324935309070302
 10
3.3003269184157866
 20
-6.9581721832935806
 42
0.1674674427719691
 10
3.9411441698841498
 20
-7.1380603827555085
 42
0.0895131828690359
 10
4.4071013028369679
 20
-7.0656687549326982
 42
0.1027541020681695
 10
4.6618477502048128
 20
-6.9099171764695626
 42
0.1280466404263791
 10
4.9381283732617129
 20
-6.4119777390913812
 42
0.0521544333924205
 10
5.0466917919425169
 20
-5.7797108174869347
 42
0.019872585707714
 10
5.0655448160947492
 20
-5.1994228558845839
 42
0.0396628599899593
 10
4.9982607799383469
 20
-3.9799641270270447
 42
0.1508517730761333
 10
4.6852502713854358
 20
-3.2485802770595242
 42
0.1422706573505605
 10
4.273773222326624
 20
-3.0124097507161949
 42
0.0639883979079236
 10
3.9587306539665272
 20
-2.973655895036563
 42
0.11904753182537
 10
3.4364303208323195
 20
-3.0884517206120261
 42
0.1044654415941444
 10
3.1736777383881423
 20
-3.2953753079529253
 42
0.1010686754655889
 10
2.9574210942356496
 20
-3.7756531752399307
 42
0.0425913012064066
 10
2.8672780165813689
 20
-4.3537150601516537
 42
0.016754213950155
  0
LWPOLYLINE
  5
79
100
AcDbEntity
  8
text_engrave
 62
256
370
-1
 48
1.0
  6
BYLAYER
100
AcDbPolyline
 90
23
 70
129
 10
3.4135496474128502
 20
-5.3400503691074253
 42
-0.0065469789739078
 10
3.4116058583600619
 20
-4.9227251032324828
 42
-0.0102911690129885
 10
3.4252841603784887
 20
-4.3999293365222307
 42
-0.0333128862549085
 10
3.4663090996599797
 20
-3.9865105543370674
 42
-0.1542223775936804
 10
3.6597604245661257
 20
-3.5719475150106614
 42
-0.198707349564118
 10
3.9411441698841498
 20
-3.4650072949415058
 42
-0.1112446109365442
 10
4.1639063015942552
 20
-3.51701490383148
 42
-0.1862804720172314
 10
4.3866684333043571
 20
-3.7579908453498572
 42
-0.0543005344351792
 10
4.4430917252284692
 20
-3.9652699291871789
 42
-0.022421717209824
 10
4.4687386923554486
 20
-4.1857328647361731
 42
-0.0107829673215379
 10
4.4870539576637078
 20
-4.53363946179641
 42
-0.0079693376479942
 10
4.4921794716453141
 20
-4.8771514714153366
 42
-0.0113324857462087
 10
4.4745968759455348
 20
-5.6132485774209906
 42
-0.0189692252247478
 10
4.4394278855514893
 20
-6.0900637729629361
 42
-0.0679539468802477
 10
4.3976599523353004
 20
-6.2870887896414445
 42
-0.1488330750929091
 10
4.210803592480592
 20
-6.5412437112197335
 42
-0.035690706794727
 10
4.1155434033266376
 20
-6.5910492888195105
 42
-0.0991269952489987
 10
3.9587306539665272
 20
-6.6232764272664246
 42
-0.1327128123078584
 10
3.7132525911157872
 20
-6.5558923211256808
 42
-0.1360391088900721
 10
3.5425171973502811
 20
-6.3830377588439724
 42
-0.069456855238012
 10
3.4751022970071181
 20
-6.1838153590567595
 42
-0.0213167528419605
 10
3.4428604542168122
 20
-5.9670146988928936
 42
-0.0084892824209853
 10
3.4216100857634029
 20
-5.6535324446120878
 42
-0.0123541027367364
  0
LWPOLYLINE
  5
7A
100
AcDbEntity
  8
text_engrave
 62
256
370
-1
 48
1.0
  6
BYLAYER
100
AcDbPolyline
 90
10
 70
129
 10
5.7373753447703963
 20
-3.0144883817264558
 10
5.7373753447703963
 20
-7.0853719940524211
 10
6.3165988281158656
 20
-7.0853719940524211
 10
6.2697908359471368
 20
-4.4415501816104683
 10
7.2779907884188253
 20
-7.0911952715872282
 10
7.7869916910206767
 20
-7.0911952715872282
 10
7.7869916910206767
 20
-3.0144883817264558
 10
7.2194844854672757
 20
-3.0144883817264558
 10
7.2721401581236718
 20
-5.6818269533481303
 10
6.3048951540467018
 20
-3.0144883817264558
  0
LINE
  5
7B
100
AcDbEntity
  8
crop_marks
 62
256
370
-1
 48
1.0
  6
BYLAYER
100
AcDbLine
 10
-10.699999999999999
 20
12.0
 30
0.0
 11
-10.699999999999999
 21
15.0
 31
0.0
  0
LINE
  5
7C
100
AcDbEntity
  8
crop_marks
 62
256
370
-1
 48
1.0
  6
BYLAYER
100
AcDbLine
 10
10.699999999999999
 20
12.0
 30
0.0
 11
10.699999999999999
 21
15.0
 31
0.0
  0
LINE
  5
7D
100
AcDbEntity
  8
crop_marks
 62
256
370
-1
 48
1.0
  6
BYLAYER
100
AcDbLine
 10
-10.699999999999999
 20
-12.0
 30
0.0
 11
-10.699999999999999
 21
-15.0
 31
0.0
  0
LINE
  5
7E
100
AcDbEntity
  8
crop_marks
 62
256
370
-1
 48
1.0
  6
BYLAYER
100
AcDbLine
 10
10.699999999999999
 20
-12.0
 30
0.0
 11
10.699999999999999
 21
-15.0
 31
0.0
  0
LINE
  5
7F
100
AcDbEntity
  8
crop_marks
 62
256
370
-1
 48
1.0
  6
BYLAYER
100
AcDbLine
 10
12.0
 20
-10.699999999999999
 30
0.0
 11
15.0
 21
-10.699999999999999
 31
0.0
  0
LINE
  5
80
100
AcDbEntity
  8
crop_marks
 62
256
370
-1
 48
1.0
  6
BYLAYER
100
AcDbLine
 10
12.0
 20
10.699999999999999
 30
0.0
 11
15.0
 21
10.699999999999999
 31
0.0
  0
LINE
  5
81
100
AcDbEntity
  8
crop_marks
 62
256
370
-1
 48
1.0
  6
BYLAYER
100
AcDbLine
 10
-12.0
 20
10.699999999999999
 30
0.0
 11
-15.0
 21
10.699999999999999
 31
0.0
  0
LINE
  5
82
100
AcDbEntity
  8
crop_marks
 62
256
370
-1
 48
1.0
  6
BYLAYER
100
AcDbLine
 10
-12.0
 20
-10.699999999999999
 30
0.0
 11
-15.0
 21
-10.699999999999999
 31
0.0
  0
DIMENSION
  5
83
100
AcDbEntity
  8
dimensions
 62
256
370
-1
 48
1.0
  6
BYLAYER
100
AcDbDimension
 10
-10.699999999999999
 20
-20.0
 30
0.0
 11
0.0000000000000001
 21
-18.125
 31
0.0
 70
0
 71
8
 72
2
 74
0
 75
0
 41
1.0
 42
0.0
  1

  3
Standard
100
AcDbAlignedDimension
 13
-10.699999999999999
 23
-15.0
 33
0.0
 14
10.699999999999999
 24
-15.0
 34
0.0
 50
0.0
100
AcDbRotatedDimension
1001
ACAD
1000
DSTYLE
1002
{
1070
144
1040
1.0
1070
40
1040
1.0
1002
}
  0
DIMENSION
  5
84
100
AcDbEntity
  8
dimensions
 62
256
370
-1
 48
1.0
  6
BYLAYER
100
AcDbDimension
 10
-20.0
 20
10.699999999999999
 30
0.0
 11
-21.875
 21
0.0000000000000002
 31
0.0
 70
0
 71
8
 72
2
 74
0
 75
0
 41
1.0
 42
0.0
  1

  3
Standard
100
AcDbAlignedDimension
 13
-15.0
 23
10.699999999999999
 33
0.0
 14
-15.0
 24
-10.699999999999999
 34
0.0
 50
90.0
100
AcDbRotatedDimension
1001
ACAD
1000
DSTYLE
1002
{
1070
144
1040
1.0
1070
40
1040
1.0
1002
}
  0
LWPOLYLINE
  5
85
100
AcDbEntity
  8
frame_engrave
 62
256
370
-1
 48
1.0
  6
BYLAYER
100
AcDbPolyline
 90
9
 70
128
 10
-10.1
 20
-10.699999999999999
 10
10.099999999999998
 20
-10.699999999999999
 42
0.4142135623730969
 10
10.699999999999999
 20
-10.100000000000001
 10
10.699999999999999
 20
10.099999999999998
 42
0.4142135623730942
 10
10.1
 20
10.699999999999999
 10
-10.100000000000005
 20
10.699999999999999
 42
0.4142135623730924
 10
-10.700000000000001
 20
10.099999999999998
 10
-10.699999999999999
 20
-10.099999999999998
 42
0.414213562373095
 10
-10.1
 20
-10.699999999999999
  0
LINE
  5
86
100
AcDbEntity
  8
frame_engrave
 62
256
370
-1
 48
1.0
  6
BYLAYER
100
AcDbLine
 10
-9.5
 20
-9.5
 30
0.0
 11
9.5
 21
-9.5
 31
0.0
  0
LINE
  5
87
100
AcDbEntity
  8
frame_engrave
 62
256
370
-1
 48
1.0
  6
BYLAYER
100
AcDbLine
 10
9.5
 20
9.5
 30
0.0
 11
-9.5
 21
9.5
 31
0.0
  0
LINE
  5
88
100
AcDbEntity
  8
frame_engrave
 62
256
370
-1
 48
1.0
  6
BYLAYER
100
AcDbLine
 10
-9.5
 20
9.5
 30
0.0
 11
-9.5
 21
0.6000000000000014
 31
0.0
  0
LINE
  5
89
100
AcDbEntity
  8
frame_engrave
 62
256
370
-1
 48
1.0
  6
BYLAYER
100
AcDbLine
 10
-9.5
 20
-0.6000000000000001
 30
0.0
 11
-9.5
 21
-9.5
 31
0.0
  0
LINE
  5
8A
100
AcDbEntity
  8
frame_engrave
 62
256
370
-1
 48
1.0
  6
BYLAYER
100
AcDbLine
 10
9.5
 20
-9.5
 30
0.0
 11
9.5
 21
-0.6000000000000014
 31
0.0
  0
LINE
  5
8B
100
AcDbEntity
  8
frame_engrave
 62
256
370
-1
 48
1.0
  6
BYLAYER
100
AcDbLine
 10
9.5
 20
0.6
 30
0.0
 11
9.5
 21
9.5
 31
0.0
  0
LINE
  5
8C
100
AcDbEntity
  8
frame_engrave
 62
256
370
-1
 48
1.0
  6
BYLAYER
100
AcDbLine
 10
-9.5
 20
-0.6
 30
0.0
 11
9.5
 21
-0.6
 31
0.0
  0
LINE
  5
8D
100
AcDbEntity
  8
frame_engrave
 62
256
370
-1
 48
1.0
  6
BYLAYER
100
AcDbLine
 10
9.5
 20
0.6
 30
0.0
 11
-9.5
 21
0.6
 31
0.0
  0
LWPOLYLINE
  5
8E
100
AcDbEntity
  8
frame_engrave
 62
256
370
-1
 48
1.0
  6
BYLAYER
100
AcDbPolyline
 90
4
 70
129
 10
-11.699999999999999
 20
-11.699999999999999
 10
11.699999999999999
 20
-11.699999999999999
 10
11.699999999999999
 20
11.699999999999999
 10
-11.699999999999999
 20
11.699999999999999
  0
ENDSEC
  0
SECTION
  2
OBJECTS
  0
DICTIONARY
  5
C
100
AcDbDictionary
280
0
281
1
  3
ACAD_GROUP
350
D
  3
ACAD_LAYOUT
350
1A
  3
ACAD_MLINESTYLE
350
17
  3
ACAD_PLOTSETTINGS
350
19
  3
ACAD_PLOTSTYLENAME
350
E
  3
AcDbVariableDictionary
350
8F
  3
QCAD_OBJECTS
350
90
  0
DICTIONARY
  5
D
100
AcDbDictionary
280
0
281
1
  0
ACDBDICTIONARYWDFLT
  5
E
100
AcDbDictionary
281
1
  3
Normal
350
F
100
AcDbDictionaryWithDefault
340
F
  0
ACDBPLACEHOLDER
  5
F
  0
DICTIONARY
  5
17
100
AcDbDictionary
280
0
281
1
  3
Standard
350
18
  0
MLINESTYLE
  5
18
100
AcDbMlineStyle
  2
STANDARD
 70
0
  3

 62
256
 51
90.0
 52
90.0
 71
2
 49
0.5
 62
256
  6
BYLAYER
 49
-0.5
 62
256
  6
BYLAYER
  0
DICTIONARY
  5
19
100
AcDbDictionary
280
0
281
1
  0
DICTIONARY
  5
1A
100
AcDbDictionary
281
1
  3
Layout1
350
1E
  3
Layout2
350
26
  3
Model
350
22
  0
LAYOUT
  5
1E
100
AcDbPlotSettings
  1

  2
none_device
  4

  6

 40
0.0
 41
0.0
 42
0.0
 43
0.0
 44
0.0
 45
0.0
 46
0.0
 47
0.0
 48
0.0
 49
0.0
140
0.0
141
0.0
142
1.0
143
1.0
 70
688
 72
0
 73
0
 74
5
  7

 75
16
147
1.0
148
0.0
149
0.0
100
AcDbLayout
  1
Layout1
 70
1
 71
1
 10
0.0
 20
0.0
 11
420.0
 21
297.0
 12
0.0
 22
0.0
 32
0.0
 14
100000000000000000000.0
 24
100000000000000000000.0
 34
100000000000000000000.0
 15
-100000000000000000000.0
 25
-100000000000000000000.0
 35
-100000000000000000000.0
146
0.0
 13
0.0
 23
0.0
 33
0.0
 16
1.0
 26
0.0
 36
0.0
 17
0.0
 27
1.0
 37
0.0
 76
0
330
1B
  0
LAYOUT
  5
22
100
AcDbPlotSettings
  1

  2
none_device
  4

  6

 40
0.0
 41
0.0
 42
0.0
 43
0.0
 44
0.0
 45
0.0
 46
0.0
 47
0.0
 48
0.0
 49
0.0
140
0.0
141
0.0
142
1.0
143
1.0
 70
1712
 72
0
 73
0
 74
0
  7

 75
0
147
1.0
148
0.0
149
0.0
100
AcDbLayout
  1
Model
 70
1
 71
0
 10
0.0
 20
0.0
 11
12.0
 21
9.0
 12
0.0
 22
0.0
 32
0.0
 14
0.0
 24
0.0
 34
0.0
 15
0.0
 25
0.0
 35
0.0
146
0.0
 13
0.0
 23
0.0
 33
0.0
 16
1.0
 26
0.0
 36
0.0
 17
0.0
 27
1.0
 37
0.0
 76
0
330
1F
  0
LAYOUT
  5
26
100
AcDbPlotSettings
  1

  2
none_device
  4

  6

 40
0.0
 41
0.0
 42
0.0
 43
0.0
 44
0.0
 45
0.0
 46
0.0
 47
0.0
 48
0.0
 49
0.0
140
0.0
141
0.0
142
1.0
143
1.0
 70
688
 72
0
 73
0
 74
5
  7

 75
16
147
1.0
148
0.0
149
0.0
100
AcDbLayout
  1
Layout2
 70
1
 71
2
 10
0.0
 20
0.0
 11
12.0
 21
9.0
 12
0.0
 22
0.0
 32
0.0
 14
0.0
 24
0.0
 34
0.0
 15
0.0
 25
0.0
 35
0.0
146
0.0
 13
0.0
 23
0.0
 33
0.0
 16
1.0
 26
0.0
 36
0.0
 17
0.0
 27
1.0
 37
0.0
 76
0
330
23
  0
DICTIONARY
  5
8F
100
AcDbDictionary
281
1
  3
DIMASSOC
350
92
  3
HIDETEXT
350
91
  0
DICTIONARYVAR
  5
91
100
DictionaryVariables
280
0
  1
2
  0
DICTIONARYVAR
  5
92
100
DictionaryVariables
280
0
  1
1
  0
DICTIONARY
  5
90
100
AcDbDictionary
281
1
  3
ColorSettings/BackgroundColor
350
93
  3
ColorSettings/ColorMode
350
94
  3
Grid/DisplayGrid00
350
95
  3
Grid/DisplayGrid01
350
96
  3
Grid/DisplayGrid02
350
97
  3
Grid/DisplayGrid03
350
98
  3
Grid/GridSpacingX00
350
99
  3
Grid/GridSpacingX01
350
9A
  3
Grid/GridSpacingX02
350
9B
  3
Grid/GridSpacingX03
350
9C
  3
Grid/GridSpacingY00
350
9D
  3
Grid/GridSpacingY01
350
9E
  3
Grid/GridSpacingY02
350
9F
  3
Grid/GridSpacingY03
350
A0
  3
Grid/IsometricGrid00
350
A1
  3
Grid/IsometricGrid01
350
A2
  3
Grid/IsometricGrid02
350
A3
  3
Grid/IsometricGrid03
350
A4
  3
Grid/IsometricProjection00
350
A5
  3
Grid/IsometricProjection01
350
A6
  3
Grid/IsometricProjection02
350
A7
  3
Grid/IsometricProjection03
350
A8
  3
Grid/MetaGridSpacingX00
350
A9
  3
Grid/MetaGridSpacingX01
350
AA
  3
Grid/MetaGridSpacingX02
350
AB
  3
Grid/MetaGridSpacingX03
350
AC
  3
Grid/MetaGridSpacingY00
350
AD
  3
Grid/MetaGridSpacingY01
350
AE
  3
Grid/MetaGridSpacingY02
350
AF
  3
Grid/MetaGridSpacingY03
350
B0
  3
MultiPageSettings/Columns
350
B1
  3
MultiPageSettings/GlueMarginsBottom
350
B2
  3
MultiPageSettings/GlueMarginsLeft
350
B3
  3
MultiPageSettings/GlueMarginsRight
350
B4
  3
MultiPageSettings/GlueMarginsTop
350
B5
  3
MultiPageSettings/PrintCropMarks
350
B6
  3
MultiPageSettings/Rows
350
B7
  3
PageSettings/OffsetX
350
B8
  3
PageSettings/OffsetY
350
B9
  3
PageSettings/PageOrientation
350
BA
  3
PageSettings/PaperHeight
350
BB
  3
PageSettings/PaperWidth
350
BC
  3
PageSettings/Scale
350
BD
  3
PageSettings/ShowPaperBorders
350
BE
  3
QCADVersion
350
BF
  3
UnitSettings/PaperUnit
350
C0
  3
ViewportCenter
350
C1
  3
ViewportHeight
350
C2
  3
ViewportWidth
350
C3
  0
XRECORD
  5
93
330
90
100
AcDbXrecord
280
1
1000
White
  0
XRECORD
  5
94
330
90
100
AcDbXrecord
280
1
1000
FullColor
  0
XRECORD
  5
95
330
90
100
AcDbXrecord
280
1
290
1
  0
XRECORD
  5
96
330
90
100
AcDbXrecord
280
1
290
1
  0
XRECORD
  5
97
330
90
100
AcDbXrecord
280
1
290
1
  0
XRECORD
  5
98
330
90
100
AcDbXrecord
280
1
290
1
  0
XRECORD
  5
99
330
90
100
AcDbXrecord
280
1
1000
auto
  0
XRECORD
  5
9A
330
90
100
AcDbXrecord
280
1
1000
auto
  0
XRECORD
  5
9B
330
90
100
AcDbXrecord
280
1
1000
auto
  0
XRECORD
  5
9C
330
90
100
AcDbXrecord
280
1
1000
auto
  0
XRECORD
  5
9D
330
90
100
AcDbXrecord
280
1
1000
auto
  0
XRECORD
  5
9E
330
90
100
AcDbXrecord
280
1
1000
auto
  0
XRECORD
  5
9F
330
90
100
AcDbXrecord
280
1
1000
auto
  0
XRECORD
  5
A0
330
90
100
AcDbXrecord
280
1
1000
auto
  0
XRECORD
  5
A1
330
90
100
AcDbXrecord
280
1
290
0
  0
XRECORD
  5
A2
330
90
100
AcDbXrecord
280
1
290
0
  0
XRECORD
  5
A3
330
90
100
AcDbXrecord
280
1
290
0
  0
XRECORD
  5
A4
330
90
100
AcDbXrecord
280
1
290
0
  0
XRECORD
  5
A5
330
90
100
AcDbXrecord
280
1
 90
65537
  0
XRECORD
  5
A6
330
90
100
AcDbXrecord
280
1
 90
65537
  0
XRECORD
  5
A7
330
90
100
AcDbXrecord
280
1
 90
65537
  0
XRECORD
  5
A8
330
90
100
AcDbXrecord
280
1
 90
65537
  0
XRECORD
  5
A9
330
90
100
AcDbXrecord
280
1
1000
auto
  0
XRECORD
  5
AA
330
90
100
AcDbXrecord
280
1
1000
auto
  0
XRECORD
  5
AB
330
90
100
AcDbXrecord
280
1
1000
auto
  0
XRECORD
  5
AC
330
90
100
AcDbXrecord
280
1
1000
auto
  0
XRECORD
  5
AD
330
90
100
AcDbXrecord
280
1
1000
auto
  0
XRECORD
  5
AE
330
90
100
AcDbXrecord
280
1
1000
auto
  0
XRECORD
  5
AF
330
90
100
AcDbXrecord
280
1
1000
auto
  0
XRECORD
  5
B0
330
90
100
AcDbXrecord
280
1
1000
auto
  0
XRECORD
  5
B1
330
90
100
AcDbXrecord
280
1
 90
1
  0
XRECORD
  5
B2
330
90
100
AcDbXrecord
280
1
 40
10.0
  0
XRECORD
  5
B3
330
90
100
AcDbXrecord
280
1
 40
10.0
  0
XRECORD
  5
B4
330
90
100
AcDbXrecord
280
1
 40
10.0
  0
XRECORD
  5
B5
330
90
100
AcDbXrecord
280
1
 40
10.0
  0
XRECORD
  5
B6
330
90
100
AcDbXrecord
280
1
290
0
  0
XRECORD
  5
B7
330
90
100
AcDbXrecord
280
1
 90
1
  0
XRECORD
  5
B8
330
90
100
AcDbXrecord
280
1
 40
-72.762124711316361
  0
XRECORD
  5
B9
330
90
100
AcDbXrecord
280
1
 40
-228.26443418013892
  0
XRECORD
  5
BA
330
90
100
AcDbXrecord
280
1
1000
Portrait
  0
XRECORD
  5
BB
330
90
100
AcDbXrecord
280
1
 40
297.0
  0
XRECORD
  5
BC
330
90
100
AcDbXrecord
280
1
 40
210.0
  0
XRECORD
  5
BD
330
90
100
AcDbXrecord
280
1
1000
1.004:1
  0
XRECORD
  5
BE
330
90
100
AcDbXrecord
280
1
290
1
  0
XRECORD
  5
BF
330
90
100
AcDbXrecord
280
1
1000
3.21.3
  0
XRECORD
  5
C0
330
90
100
AcDbXrecord
280
1
 90
4
  0
XRECORD
  5
C2
330
90
100
AcDbXrecord
280
1
 40
29.070196991499515
  0
XRECORD
  5
C3
330
90
100
AcDbXrecord
280
1
 40
55.637661791677878
  0
ENDSEC
  0
EOF
