solid OpenSCAD_Model
  facet normal -1 0 0
    outer loop
      vertex -10.7 -10.7 0
      vertex -10.7 10.7 0.799999
      vertex -10.7 10.7 0
    endloop
  endfacet
  facet normal -1 -0 0
    outer loop
      vertex -10.7 10.7 0.799999
      vertex -10.7 -10.7 0
      vertex -10.7 -10.7 0.799999
    endloop
  endfacet
  facet normal 0 0 1
    outer loop
      vertex 9.5 0.599999 0.799999
      vertex 10.7 10.7 0.799999
      vertex 9.5 9.5 0.799999
    endloop
  endfacet
  facet normal 0 0 1
    outer loop
      vertex 10.7 10.7 0.799999
      vertex -9.5 9.5 0.799999
      vertex 9.5 9.5 0.799999
    endloop
  endfacet
  facet normal 0 0 1
    outer loop
      vertex -10.7 10.7 0.799999
      vertex -9.5 0.599999 0.799999
      vertex -9.5 9.5 0.799999
    endloop
  endfacet
  facet normal 0 0 1
    outer loop
      vertex -9.5 0.599999 0.799999
      vertex -10.7 10.7 0.799999
      vertex -9.5 -0.599999 0.799999
    endloop
  endfacet
  facet normal 0 0 1
    outer loop
      vertex -10.7 -10.7 0.799999
      vertex -9.5 -0.599999 0.799999
      vertex -10.7 10.7 0.799999
    endloop
  endfacet
  facet normal -0 0 1
    outer loop
      vertex -10.7 10.7 0.799999
      vertex -9.5 9.5 0.799999
      vertex 10.7 10.7 0.799999
    endloop
  endfacet
  facet normal 0 0 1
    outer loop
      vertex 10.7 10.7 0.799999
      vertex 9.5 0.599999 0.799999
      vertex 10.7 -10.7 0.799999
    endloop
  endfacet
  facet normal -0 0 1
    outer loop
      vertex 9.5 -0.599999 0.799999
      vertex 10.7 -10.7 0.799999
      vertex 9.5 0.599999 0.799999
    endloop
  endfacet
  facet normal -0 0 1
    outer loop
      vertex 9.5 -9.5 0.799999
      vertex 10.7 -10.7 0.799999
      vertex 9.5 -0.599999 0.799999
    endloop
  endfacet
  facet normal -0 0 1
    outer loop
      vertex -9.5 -9.5 0.799999
      vertex 10.7 -10.7 0.799999
      vertex 9.5 -9.5 0.799999
    endloop
  endfacet
  facet normal 0 0 1
    outer loop
      vertex -9.5 -9.5 0.799999
      vertex -10.7 -10.7 0.799999
      vertex 10.7 -10.7 0.799999
    endloop
  endfacet
  facet normal 0 0 1
    outer loop
      vertex -9.5 -0.599999 0.799999
      vertex -10.7 -10.7 0.799999
      vertex -9.5 -9.5 0.799999
    endloop
  endfacet
  facet normal 1 -0 0
    outer loop
      vertex 10.7 -10.7 0.799999
      vertex 10.7 10.7 0
      vertex 10.7 10.7 0.799999
    endloop
  endfacet
  facet normal 1 0 0
    outer loop
      vertex 10.7 10.7 0
      vertex 10.7 -10.7 0.799999
      vertex 10.7 -10.7 0
    endloop
  endfacet
  facet normal 0 1 -0
    outer loop
      vertex 10.7 10.7 0
      vertex -10.7 10.7 0.799999
      vertex 10.7 10.7 0.799999
    endloop
  endfacet
  facet normal 0 1 0
    outer loop
      vertex -10.7 10.7 0.799999
      vertex 10.7 10.7 0
      vertex -10.7 10.7 0
    endloop
  endfacet
  facet normal 0 0 -1
    outer loop
      vertex -9.5 -0.599999 0
      vertex 9.5 0.599999 0
      vertex 9.5 -0.599999 0
    endloop
  endfacet
  facet normal -0 0 -1
    outer loop
      vertex 9.5 0.599999 0
      vertex -9.5 -0.599999 0
      vertex -9.5 0.599999 0
    endloop
  endfacet
  facet normal 0 0 -1
    outer loop
      vertex 9.5 -0.599999 0
      vertex 10.7 -10.7 0
      vertex 9.5 -9.5 0
    endloop
  endfacet
  facet normal 0 0 -1
    outer loop
      vertex 10.7 -10.7 0
      vertex -9.5 -9.5 0
      vertex 9.5 -9.5 0
    endloop
  endfacet
  facet normal 0 0 -1
    outer loop
      vertex -10.7 -10.7 0
      vertex -9.5 -0.599999 0
      vertex -9.5 -9.5 0
    endloop
  endfacet
  facet normal -0 0 -1
    outer loop
      vertex -9.5 -0.599999 0
      vertex -10.7 -10.7 0
      vertex -9.5 0.599999 0
    endloop
  endfacet
  facet normal 0 0 -1
    outer loop
      vertex -10.7 10.7 0
      vertex -9.5 0.599999 0
      vertex -10.7 -10.7 0
    endloop
  endfacet
  facet normal 0 0 -1
    outer loop
      vertex -10.7 -10.7 0
      vertex -9.5 -9.5 0
      vertex 10.7 -10.7 0
    endloop
  endfacet
  facet normal 0 0 -1
    outer loop
      vertex 10.7 -10.7 0
      vertex 9.5 -0.599999 0
      vertex 10.7 10.7 0
    endloop
  endfacet
  facet normal 0 0 -1
    outer loop
      vertex 9.5 0.599999 0
      vertex 10.7 10.7 0
      vertex 9.5 -0.599999 0
    endloop
  endfacet
  facet normal 0 0 -1
    outer loop
      vertex 9.5 9.5 0
      vertex 10.7 10.7 0
      vertex 9.5 0.599999 0
    endloop
  endfacet
  facet normal 0 0 -1
    outer loop
      vertex -9.5 9.5 0
      vertex 10.7 10.7 0
      vertex 9.5 9.5 0
    endloop
  endfacet
  facet normal 0 0 -1
    outer loop
      vertex -9.5 9.5 0
      vertex -10.7 10.7 0
      vertex 10.7 10.7 0
    endloop
  endfacet
  facet normal 0 0 -1
    outer loop
      vertex -9.5 0.599999 0
      vertex -10.7 10.7 0
      vertex -9.5 9.5 0
    endloop
  endfacet
  facet normal 0 -1 0
    outer loop
      vertex -10.7 -10.7 0
      vertex 10.7 -10.7 0.799999
      vertex -10.7 -10.7 0.799999
    endloop
  endfacet
  facet normal 0 -1 -0
    outer loop
      vertex 10.7 -10.7 0.799999
      vertex -10.7 -10.7 0
      vertex 10.7 -10.7 0
    endloop
  endfacet
  facet normal 1 -0 0
    outer loop
      vertex -9.5 0.599999 0.799999
      vertex -9.5 9.5 0
      vertex -9.5 9.5 0.799999
    endloop
  endfacet
  facet normal 1 0 0
    outer loop
      vertex -9.5 9.5 0
      vertex -9.5 0.599999 0.799999
      vertex -9.5 0.599999 0
    endloop
  endfacet
  facet normal -1 0 0
    outer loop
      vertex 9.5 0.599999 0
      vertex 9.5 9.5 0.799999
      vertex 9.5 9.5 0
    endloop
  endfacet
  facet normal -1 -0 0
    outer loop
      vertex 9.5 9.5 0.799999
      vertex 9.5 0.599999 0
      vertex 9.5 0.599999 0.799999
    endloop
  endfacet
  facet normal 0 1 -0
    outer loop
      vertex 9.5 0.599999 0
      vertex -9.5 0.599999 0.799999
      vertex 9.5 0.599999 0.799999
    endloop
  endfacet
  facet normal 0 1 0
    outer loop
      vertex -9.5 0.599999 0.799999
      vertex 9.5 0.599999 0
      vertex -9.5 0.599999 0
    endloop
  endfacet
  facet normal 0 -1 0
    outer loop
      vertex -9.5 9.5 0
      vertex 9.5 9.5 0.799999
      vertex -9.5 9.5 0.799999
    endloop
  endfacet
  facet normal 0 -1 -0
    outer loop
      vertex 9.5 9.5 0.799999
      vertex -9.5 9.5 0
      vertex 9.5 9.5 0
    endloop
  endfacet
  facet normal 1 -0 0
    outer loop
      vertex -9.5 -9.5 0.799999
      vertex -9.5 -0.599999 0
      vertex -9.5 -0.599999 0.799999
    endloop
  endfacet
  facet normal 1 0 0
    outer loop
      vertex -9.5 -0.599999 0
      vertex -9.5 -9.5 0.799999
      vertex -9.5 -9.5 0
    endloop
  endfacet
  facet normal -1 0 0
    outer loop
      vertex 9.5 -9.5 0
      vertex 9.5 -0.599999 0.799999
      vertex 9.5 -0.599999 0
    endloop
  endfacet
  facet normal -1 -0 0
    outer loop
      vertex 9.5 -0.599999 0.799999
      vertex 9.5 -9.5 0
      vertex 9.5 -9.5 0.799999
    endloop
  endfacet
  facet normal 0 -1 0
    outer loop
      vertex -9.5 -0.599999 0
      vertex 9.5 -0.599999 0.799999
      vertex -9.5 -0.599999 0.799999
    endloop
  endfacet
  facet normal 0 -1 -0
    outer loop
      vertex 9.5 -0.599999 0.799999
      vertex -9.5 -0.599999 0
      vertex 9.5 -0.599999 0
    endloop
  endfacet
  facet normal 0 1 -0
    outer loop
      vertex 9.5 -9.5 0
      vertex -9.5 -9.5 0.799999
      vertex 9.5 -9.5 0.799999
    endloop
  endfacet
  facet normal 0 1 0
    outer loop
      vertex -9.5 -9.5 0.799999
      vertex 9.5 -9.5 0
      vertex -9.5 -9.5 0
    endloop
  endfacet
  facet normal 0 1 -0
    outer loop
      vertex 8 0.599999 4.69999
      vertex -8 0.599999 7.69999
      vertex 8 0.599999 7.69999
    endloop
  endfacet
  facet normal 0 1 0
    outer loop
      vertex 8 0.599999 4.69999
      vertex -8 0.599999 4.69999
      vertex -8 0.599999 7.69999
    endloop
  endfacet
  facet normal 0 1 0
    outer loop
      vertex 8 0.599999 4.69999
      vertex 9 0.599999 3.6
      vertex -8 0.599999 4.69999
    endloop
  endfacet
  facet normal 0 1 -0
    outer loop
      vertex 9.5 0.599999 0.799999
      vertex 9 0.599999 3.2
      vertex 9.5 0.599999 3.19999
    endloop
  endfacet
  facet normal 0 1 0
    outer loop
      vertex 9 0.599999 3.6
      vertex 9.5 0.599999 3.19999
      vertex 9 0.599999 3.2
    endloop
  endfacet
  facet normal 0 1 0
    outer loop
      vertex 9.5 0.599999 3.19999
      vertex 9 0.599999 3.6
      vertex 8 0.599999 4.69999
    endloop
  endfacet
  facet normal 0 1 0
    outer loop
      vertex -9 0.599999 3.6
      vertex -8 0.599999 4.69999
      vertex 9 0.599999 3.6
    endloop
  endfacet
  facet normal 0 1 -0
    outer loop
      vertex -9 0.599999 3.6
      vertex -9.5 0.599999 3.19999
      vertex -8 0.599999 4.69999
    endloop
  endfacet
  facet normal 0 1 -0
    outer loop
      vertex -9 0.599999 3.2
      vertex -9.5 0.599999 3.19999
      vertex -9 0.599999 3.6
    endloop
  endfacet
  facet normal 0 1 0
    outer loop
      vertex 9 0.599999 3.2
      vertex 9.5 0.599999 0.799999
      vertex -9 0.599999 3.2
    endloop
  endfacet
  facet normal 0 1 0
    outer loop
      vertex -9.5 0.599999 0.799999
      vertex -9 0.599999 3.2
      vertex 9.5 0.599999 0.799999
    endloop
  endfacet
  facet normal 0 1 0
    outer loop
      vertex -9 0.599999 3.2
      vertex -9.5 0.599999 0.799999
      vertex -9.5 0.599999 3.19999
    endloop
  endfacet
  facet normal 0 -1 0
    outer loop
      vertex -8 -0.599999 4.69999
      vertex 8 -0.599999 7.69999
      vertex -8 -0.599999 7.69999
    endloop
  endfacet
  facet normal 0 -1 0
    outer loop
      vertex -8 -0.599999 4.69999
      vertex 8 -0.599999 4.69999
      vertex 8 -0.599999 7.69999
    endloop
  endfacet
  facet normal 0 -1 -0
    outer loop
      vertex -8 -0.599999 4.69999
      vertex -9 -0.599999 3.6
      vertex 8 -0.599999 4.69999
    endloop
  endfacet
  facet normal 0 -1 0
    outer loop
      vertex -9.5 -0.599999 0.799999
      vertex -9 -0.599999 3.2
      vertex -9.5 -0.599999 3.19999
    endloop
  endfacet
  facet normal 0 -1 -0
    outer loop
      vertex -9 -0.599999 3.6
      vertex -9.5 -0.599999 3.19999
      vertex -9 -0.599999 3.2
    endloop
  endfacet
  facet normal 0 -1 0
    outer loop
      vertex -9.5 -0.599999 3.19999
      vertex -9 -0.599999 3.6
      vertex -8 -0.599999 4.69999
    endloop
  endfacet
  facet normal 0 -1 0
    outer loop
      vertex 9 -0.599999 3.6
      vertex 8 -0.599999 4.69999
      vertex -9 -0.599999 3.6
    endloop
  endfacet
  facet normal 0 -1 0
    outer loop
      vertex 9 -0.599999 3.6
      vertex 9.5 -0.599999 3.19999
      vertex 8 -0.599999 4.69999
    endloop
  endfacet
  facet normal 0 -1 0
    outer loop
      vertex 9 -0.599999 3.2
      vertex 9.5 -0.599999 3.19999
      vertex 9 -0.599999 3.6
    endloop
  endfacet
  facet normal 0 -1 -0
    outer loop
      vertex -9 -0.599999 3.2
      vertex -9.5 -0.599999 0.799999
      vertex 9 -0.599999 3.2
    endloop
  endfacet
  facet normal 0 -1 0
    outer loop
      vertex 9.5 -0.599999 0.799999
      vertex 9 -0.599999 3.2
      vertex -9.5 -0.599999 0.799999
    endloop
  endfacet
  facet normal 0 -1 0
    outer loop
      vertex 9 -0.599999 3.2
      vertex 9.5 -0.599999 0.799999
      vertex 9.5 -0.599999 3.19999
    endloop
  endfacet
  facet normal 0.707107 -0 0.707107
    outer loop
      vertex 8 -0.599999 4.69999
      vertex 9.5 0.599999 3.19999
      vertex 8 0.599999 4.69999
    endloop
  endfacet
  facet normal 0.707107 0 0.707107
    outer loop
      vertex 9.5 0.599999 3.19999
      vertex 8 -0.599999 4.69999
      vertex 9.5 -0.599999 3.19999
    endloop
  endfacet
  facet normal 1 -0 0
    outer loop
      vertex 8 -0.599999 7.69999
      vertex 8 0.599999 4.69999
      vertex 8 0.599999 7.69999
    endloop
  endfacet
  facet normal 1 0 0
    outer loop
      vertex 8 0.599999 4.69999
      vertex 8 -0.599999 7.69999
      vertex 8 -0.599999 4.69999
    endloop
  endfacet
  facet normal -0 0 1
    outer loop
      vertex -8 0.599999 7.69999
      vertex 8 -0.599999 7.69999
      vertex 8 0.599999 7.69999
    endloop
  endfacet
  facet normal 0 0 1
    outer loop
      vertex 8 -0.599999 7.69999
      vertex -8 0.599999 7.69999
      vertex -8 -0.599999 7.69999
    endloop
  endfacet
  facet normal -1 0 0
    outer loop
      vertex -8 -0.599999 4.69999
      vertex -8 0.599999 7.69999
      vertex -8 0.599999 4.69999
    endloop
  endfacet
  facet normal -1 -0 0
    outer loop
      vertex -8 0.599999 7.69999
      vertex -8 -0.599999 4.69999
      vertex -8 -0.599999 7.69999
    endloop
  endfacet
  facet normal -0.707107 0 0.707107
    outer loop
      vertex -9.5 -0.599999 3.19999
      vertex -8 0.599999 4.69999
      vertex -9.5 0.599999 3.19999
    endloop
  endfacet
  facet normal -0.707107 0 0.707107
    outer loop
      vertex -8 0.599999 4.69999
      vertex -9.5 -0.599999 3.19999
      vertex -8 -0.599999 4.69999
    endloop
  endfacet
  facet normal -1 0 0
    outer loop
      vertex -9.5 -0.599999 0.799999
      vertex -9.5 0.599999 3.19999
      vertex -9.5 0.599999 0.799999
    endloop
  endfacet
  facet normal -1 -0 0
    outer loop
      vertex -9.5 0.599999 3.19999
      vertex -9.5 -0.599999 0.799999
      vertex -9.5 -0.599999 3.19999
    endloop
  endfacet
  facet normal 1 -0 0
    outer loop
      vertex 9.5 -0.599999 3.19999
      vertex 9.5 0.599999 0.799999
      vertex 9.5 0.599999 3.19999
    endloop
  endfacet
  facet normal 1 0 0
    outer loop
      vertex 9.5 0.599999 0.799999
      vertex 9.5 -0.599999 3.19999
      vertex 9.5 -0.599999 0.799999
    endloop
  endfacet
  facet normal -1 0 0
    outer loop
      vertex -9 -1 3.2
      vertex -9 -0.599999 3.6
      vertex -9 -0.599999 3.2
    endloop
  endfacet
  facet normal -1 -0 0
    outer loop
      vertex -9 -0.599999 3.6
      vertex -9 -1 3.2
      vertex -9 -1 3.6
    endloop
  endfacet
  facet normal -1 0 0
    outer loop
      vertex -9 0.599999 3.2
      vertex -9 1 3.6
      vertex -9 1 3.2
    endloop
  endfacet
  facet normal -1 -0 0
    outer loop
      vertex -9 1 3.6
      vertex -9 0.599999 3.2
      vertex -9 0.599999 3.6
    endloop
  endfacet
  facet normal -0 0 1
    outer loop
      vertex -9 -0.599999 3.6
      vertex 9 -1 3.6
      vertex 9 -0.599999 3.6
    endloop
  endfacet
  facet normal 0 0 1
    outer loop
      vertex 9 -1 3.6
      vertex -9 -0.599999 3.6
      vertex -9 -1 3.6
    endloop
  endfacet
  facet normal -0 0 1
    outer loop
      vertex -9 1 3.6
      vertex 9 0.599999 3.6
      vertex 9 1 3.6
    endloop
  endfacet
  facet normal 0 0 1
    outer loop
      vertex 9 0.599999 3.6
      vertex -9 1 3.6
      vertex -9 0.599999 3.6
    endloop
  endfacet
  facet normal 1 -0 0
    outer loop
      vertex 9 -1 3.6
      vertex 9 -0.599999 3.2
      vertex 9 -0.599999 3.6
    endloop
  endfacet
  facet normal 1 0 0
    outer loop
      vertex 9 -0.599999 3.2
      vertex 9 -1 3.6
      vertex 9 -1 3.2
    endloop
  endfacet
  facet normal 1 -0 0
    outer loop
      vertex 9 0.599999 3.6
      vertex 9 1 3.2
      vertex 9 1 3.6
    endloop
  endfacet
  facet normal 1 0 0
    outer loop
      vertex 9 1 3.2
      vertex 9 0.599999 3.6
      vertex 9 0.599999 3.2
    endloop
  endfacet
  facet normal 0 1 -0
    outer loop
      vertex 9 1 3.2
      vertex -9 1 3.6
      vertex 9 1 3.6
    endloop
  endfacet
  facet normal 0 1 0
    outer loop
      vertex -9 1 3.6
      vertex 9 1 3.2
      vertex -9 1 3.2
    endloop
  endfacet
  facet normal 0 0 -1
    outer loop
      vertex -9 -1 3.2
      vertex 9 -0.599999 3.2
      vertex 9 -1 3.2
    endloop
  endfacet
  facet normal -0 0 -1
    outer loop
      vertex 9 -0.599999 3.2
      vertex -9 -1 3.2
      vertex -9 -0.599999 3.2
    endloop
  endfacet
  facet normal 0 0 -1
    outer loop
      vertex -9 0.599999 3.2
      vertex 9 1 3.2
      vertex 9 0.599999 3.2
    endloop
  endfacet
  facet normal -0 0 -1
    outer loop
      vertex 9 1 3.2
      vertex -9 0.599999 3.2
      vertex -9 1 3.2
    endloop
  endfacet
  facet normal 0 -1 0
    outer loop
      vertex -9 -1 3.2
      vertex 9 -1 3.6
      vertex -9 -1 3.6
    endloop
  endfacet
  facet normal 0 -1 -0
    outer loop
      vertex 9 -1 3.6
      vertex -9 -1 3.2
      vertex 9 -1 3.2
    endloop
  endfacet
endsolid OpenSCAD_Model
